CalSansUI-Bold.ufo
<glyph name="exclam" format="2">
  <advance width="283"/>
  <unicode hex="0021"/>
  <outline>
    <contour>
      <point x="94" y="213" type="line"/>
      <point x="194" y="213" type="line"/>
      <point x="214" y="577" type="line"/>
      <point x="214" y="700" type="line"/>
      <point x="74" y="700" type="line"/>
      <point x="74" y="577" type="line"/>
    </contour>
    <component base="period"/>
  </outline>
</glyph>
<glyph name="ampersand" format="2">
  <advance width="700"/>
  <unicode hex="0026"/>
  <outline>
    <contour>
      <point x="285" y="-13" type="curve" smooth="yes"/>
      <point x="355" y="-13"/>
      <point x="422" y="20"/>
      <point x="450" y="49" type="curve" smooth="yes"/>
      <point x="538" y="135" type="line"/>
      <point x="646" y="230" type="line"/>
      <point x="563" y="313" type="line"/>
      <point x="454" y="215" type="line"/>
      <point x="378" y="151" type="line" smooth="yes"/>
      <point x="343" y="121"/>
      <point x="323" y="110"/>
      <point x="283" y="110" type="curve" smooth="yes"/>
      <point x="229" y="110"/>
      <point x="197" y="155"/>
      <point x="197" y="201" type="curve" smooth="yes"/>
      <point x="197" y="237"/>
      <point x="216" y="263"/>
      <point x="246" y="283" type="curve" smooth="yes"/>
      <point x="416" y="395" type="line" smooth="yes"/>
      <point x="490" y="444"/>
      <point x="503" y="496"/>
      <point x="503" y="544" type="curve" smooth="yes"/>
      <point x="503" y="652"/>
      <point x="412" y="713"/>
      <point x="314" y="713" type="curve" smooth="yes"/>
      <point x="209" y="713"/>
      <point x="123" y="639"/>
      <point x="123" y="544" type="curve" smooth="yes"/>
      <point x="123" y="483"/>
      <point x="141" y="454"/>
      <point x="177" y="411" type="curve" smooth="yes"/>
      <point x="435" y="101" type="line"/>
      <point x="453" y="93" type="line"/>
      <point x="521" y="0" type="line"/>
      <point x="675" y="0" type="line"/>
      <point x="281" y="485" type="line" smooth="yes"/>
      <point x="259" y="512"/>
      <point x="255" y="525"/>
      <point x="255" y="545" type="curve" smooth="yes"/>
      <point x="255" y="578"/>
      <point x="282" y="603"/>
      <point x="318" y="603" type="curve" smooth="yes"/>
      <point x="350" y="603"/>
      <point x="376" y="582"/>
      <point x="376" y="545" type="curve" smooth="yes"/>
      <point x="376" y="517"/>
      <point x="363" y="493"/>
      <point x="314" y="465" type="curve" smooth="yes"/>
      <point x="176" y="385" type="line" smooth="yes"/>
      <point x="113" y="348"/>
      <point x="60" y="284"/>
      <point x="60" y="194" type="curve" smooth="yes"/>
      <point x="60" y="83"/>
      <point x="141" y="-13"/>
    </contour>
  </outline>
</glyph>
<glyph name="nine" format="2">
  <advance width="613"/>
  <unicode hex="0039"/>
  <outline>
    <contour>
      <point x="132" y="0" type="line"/>
      <point x="295" y="0" type="line"/>
      <point x="495" y="302" type="line" smooth="yes"/>
      <point x="544" y="376"/>
      <point x="551" y="422"/>
      <point x="551" y="473" type="curve" smooth="yes"/>
      <point x="551" y="612"/>
      <point x="446" y="713"/>
      <point x="295" y="713" type="curve" smooth="yes"/>
      <point x="144" y="713"/>
      <point x="37" y="612"/>
      <point x="37" y="473" type="curve" smooth="yes"/>
      <point x="37" y="320"/>
      <point x="149" y="222"/>
      <point x="294" y="249" type="curve"/>
      <point x="296" y="245" type="line"/>
    </contour>
    <contour>
      <point x="294" y="355" type="curve" smooth="yes"/>
      <point x="223" y="355"/>
      <point x="182" y="413"/>
      <point x="182" y="473" type="curve" smooth="yes"/>
      <point x="182" y="533"/>
      <point x="223" y="583"/>
      <point x="295" y="583" type="curve" smooth="yes"/>
      <point x="365" y="583"/>
      <point x="406" y="533"/>
      <point x="406" y="473" type="curve" smooth="yes"/>
      <point x="406" y="413"/>
      <point x="365" y="355"/>
    </contour>
  </outline>
</glyph>
<glyph name="F" format="2">
  <advance width="556"/>
  <unicode hex="0046"/>
  <anchor x="150" y="0" name="bottom"/>
  <anchor x="118" y="0" name="ogonek"/>
  <anchor x="304" y="700" name="top"/>
  <outline>
    <contour>
      <point x="80" y="0" type="line"/>
      <point x="220" y="0" type="line"/>
      <point x="220" y="281" type="line"/>
      <point x="486" y="281" type="line"/>
      <point x="486" y="416" type="line"/>
      <point x="220" y="416" type="line"/>
      <point x="220" y="565" type="line"/>
      <point x="491" y="565" type="line"/>
      <point x="491" y="700" type="line"/>
      <point x="80" y="700" type="line"/>
    </contour>
  </outline>
</glyph>
<glyph name="G" format="2">
  <advance width="743"/>
  <unicode hex="0047"/>
  <anchor x="409" y="0" name="bottom"/>
  <anchor x="529" y="9" name="ogonek"/>
  <anchor x="399" y="700" name="top"/>
  <outline>
    <contour>
      <point x="407" y="-13" type="curve" smooth="yes"/>
      <point x="527" y="-13"/>
      <point x="626" y="35"/>
      <point x="679" y="97" type="curve"/>
      <point x="679" y="406" type="line"/>
      <point x="364" y="406" type="line"/>
      <point x="364" y="276" type="line"/>
      <point x="600" y="276" type="line"/>
      <point x="540" y="295" type="line"/>
      <point x="540" y="117" type="line"/>
      <point x="578" y="190" type="line"/>
      <point x="539" y="147"/>
      <point x="469" y="125"/>
      <point x="410" y="125" type="curve" smooth="yes"/>
      <point x="280" y="125"/>
      <point x="187" y="221"/>
      <point x="187" y="349" type="curve" smooth="yes"/>
      <point x="187" y="483"/>
      <point x="274" y="575"/>
      <point x="411" y="575" type="curve" smooth="yes"/>
      <point x="479" y="575"/>
      <point x="524" y="550"/>
      <point x="566" y="506" type="curve"/>
      <point x="666" y="601" type="line"/>
      <point x="600" y="679"/>
      <point x="508" y="713"/>
      <point x="407" y="713" type="curve" smooth="yes"/>
      <point x="205" y="713"/>
      <point x="42" y="546"/>
      <point x="42" y="349" type="curve" smooth="yes"/>
      <point x="42" y="142"/>
      <point x="195" y="-13"/>
    </contour>
  </outline>
</glyph>
<glyph name="d" format="2">
  <advance width="654"/>
  <unicode hex="0064"/>
  <anchor x="486" y="613" name="bar"/>
  <anchor x="297" y="0" name="bottom"/>
  <anchor x="312" y="253" name="center"/>
  <anchor x="297" y="505" name="top"/>
  <anchor x="652" y="740" name="topright"/>
  <outline>
    <contour>
      <point x="290" y="-13" type="curve" smooth="yes"/>
      <point x="362" y="-13"/>
      <point x="428" y="21"/>
      <point x="447" y="74" type="curve"/>
      <point x="453" y="74" type="line"/>
      <point x="453" y="0" type="line"/>
      <point x="584" y="0" type="line"/>
      <point x="584" y="740" type="line"/>
      <point x="449" y="740" type="line"/>
      <point x="449" y="429" type="line"/>
      <point x="443" y="429" type="line"/>
      <point x="424" y="484"/>
      <point x="358" y="518"/>
      <point x="290" y="518" type="curve" smooth="yes"/>
      <point x="141" y="518"/>
      <point x="40" y="393"/>
      <point x="40" y="252" type="curve" smooth="yes"/>
      <point x="40" y="112"/>
      <point x="141" y="-13"/>
    </contour>
    <contour>
      <point x="312" y="110" type="curve" smooth="yes"/>
      <point x="233" y="110"/>
      <point x="175" y="171"/>
      <point x="175" y="253" type="curve" smooth="yes"/>
      <point x="175" y="334"/>
      <point x="233" y="395"/>
      <point x="312" y="395" type="curve" smooth="yes"/>
      <point x="391" y="395"/>
      <point x="449" y="334"/>
      <point x="449" y="252" type="curve" smooth="yes"/>
      <point x="449" y="171"/>
      <point x="391" y="110"/>
    </contour>
  </outline>
</glyph>
<glyph name="f" format="2">
  <advance width="412"/>
  <unicode hex="0066"/>
  <anchor x="180" y="0" name="bottom"/>
  <anchor x="279" y="740" name="top"/>
  <outline>
    <contour>
      <point x="113" y="0" type="line"/>
      <point x="248" y="0" type="line"/>
      <point x="248" y="566" type="line" smooth="yes"/>
      <point x="248" y="617"/>
      <point x="286" y="638"/>
      <point x="330" y="638" type="curve" smooth="yes"/>
      <point x="354" y="638"/>
      <point x="373" y="636"/>
      <point x="392" y="630" type="curve"/>
      <point x="392" y="745" type="line"/>
      <point x="363" y="751"/>
      <point x="343" y="753"/>
      <point x="304" y="753" type="curve" smooth="yes"/>
      <point x="191" y="753"/>
      <point x="113" y="683"/>
      <point x="113" y="568" type="curve" smooth="yes"/>
    </contour>
    <contour>
      <point x="20" y="385" type="line"/>
      <point x="392" y="385" type="line"/>
      <point x="392" y="505" type="line"/>
      <point x="20" y="505" type="line"/>
    </contour>
  </outline>
</glyph>
<glyph name="n" format="2">
  <advance width="605"/>
  <unicode hex="006E"/>
  <anchor x="303" y="0" name="bottom"/>
  <anchor x="405" y="0" name="ogonek"/>
  <anchor x="325" y="505" name="top"/>
  <outline>
    <contour>
      <point x="70" y="0" type="line"/>
      <point x="205" y="0" type="line"/>
      <point x="205" y="290" type="line" smooth="yes"/>
      <point x="205" y="357"/>
      <point x="243" y="399"/>
      <point x="303" y="399" type="curve" smooth="yes"/>
      <point x="366" y="399"/>
      <point x="405" y="357"/>
      <point x="405" y="290" type="curve" smooth="yes"/>
      <point x="405" y="0" type="line"/>
      <point x="540" y="0" type="line"/>
      <point x="540" y="323" type="line" smooth="yes"/>
      <point x="540" y="434"/>
      <point x="454" y="517"/>
      <point x="357" y="517" type="curve" smooth="yes"/>
      <point x="281" y="517"/>
      <point x="230" y="477"/>
      <point x="207" y="440" type="curve"/>
      <point x="201" y="440" type="line"/>
      <point x="201" y="505" type="line"/>
      <point x="70" y="505" type="line"/>
    </contour>
  </outline>
</glyph>
<glyph name="y" format="2">
  <advance width="591"/>
  <unicode hex="0079"/>
  <anchor x="444" y="0" name="bottom"/>
  <anchor x="178" y="-213" name="ogonek"/>
  <anchor x="297" y="505" name="top"/>
  <anchor x="298" y="444" name="top_hook"/>
  <outline>
    <contour>
      <point x="92" y="-223" type="curve" smooth="yes"/>
      <point x="207" y="-223"/>
      <point x="286" y="-182"/>
      <point x="344" y="-44" type="curve" smooth="yes"/>
      <point x="576" y="505" type="line"/>
      <point x="419" y="505" type="line"/>
      <point x="325" y="217" type="line" smooth="yes"/>
      <point x="318" y="196"/>
      <point x="306" y="161"/>
      <point x="301" y="130" type="curve"/>
      <point x="296" y="130" type="line"/>
      <point x="291" y="161"/>
      <point x="279" y="196"/>
      <point x="272" y="217" type="curve" smooth="yes"/>
      <point x="178" y="505" type="line"/>
      <point x="18" y="505" type="line"/>
      <point x="214" y="24" type="line"/>
      <point x="201" y="-6" type="line" smooth="yes"/>
      <point x="178" y="-60"/>
      <point x="144" y="-91"/>
      <point x="92" y="-91" type="curve" smooth="yes"/>
      <point x="70" y="-91"/>
      <point x="55" y="-89"/>
      <point x="35" y="-83" type="curve"/>
      <point x="15" y="-213" type="line"/>
      <point x="42" y="-220"/>
      <point x="65" y="-223"/>
    </contour>
  </outline>
</glyph>
<glyph name="z" format="2">
  <advance width="550"/>
  <unicode hex="007A"/>
  <anchor x="280" y="0" name="bottom"/>
  <anchor x="498" y="0" name="ogonek"/>
  <anchor x="280" y="505" name="top"/>
  <outline>
    <contour>
      <point x="44" y="0" type="line"/>
      <point x="498" y="0" type="line"/>
      <point x="498" y="120" type="line"/>
      <point x="264" y="120" type="line"/>
      <point x="264" y="122" type="line"/>
      <point x="274" y="129"/>
      <point x="279" y="136"/>
      <point x="296" y="162" type="curve" smooth="yes"/>
      <point x="502" y="490" type="line"/>
      <point x="502" y="505" type="line"/>
      <point x="54" y="505" type="line"/>
      <point x="54" y="385" type="line"/>
      <point x="285" y="385" type="line"/>
      <point x="285" y="383" type="line"/>
      <point x="274" y="375"/>
      <point x="267" y="366"/>
      <point x="249" y="338" type="curve" smooth="yes"/>
      <point x="44" y="15" type="line"/>
    </contour>
  </outline>
</glyph>
<glyph name="cent" format="2">
  <advance width="520"/>
  <unicode hex="00A2"/>
  <anchor x="281" y="501" name="_TopCurrency"/>
  <outline>
    <contour>
      <point x="291" y="30" type="curve" smooth="yes"/>
      <point x="376" y="30"/>
      <point x="440" y="66"/>
      <point x="487" y="122" type="curve"/>
      <point x="399" y="198" type="line"/>
      <point x="374" y="167"/>
      <point x="340" y="145"/>
      <point x="291" y="145" type="curve" smooth="yes"/>
      <point x="210" y="145"/>
      <point x="163" y="202"/>
      <point x="163" y="278" type="curve" smooth="yes"/>
      <point x="163" y="354"/>
      <point x="210" y="416"/>
      <point x="291" y="416" type="curve" smooth="yes"/>
      <point x="336" y="416"/>
      <point x="367" y="396"/>
      <point x="391" y="359" type="curve"/>
      <point x="483" y="444" type="line"/>
      <point x="436" y="497"/>
      <point x="373" y="531"/>
      <point x="291" y="531" type="curve" smooth="yes"/>
      <point x="140" y="531"/>
      <point x="36" y="410"/>
      <point x="36" y="278" type="curve" smooth="yes"/>
      <point x="36" y="146"/>
      <point x="140" y="30"/>
    </contour>
    <component base="verticalTopCurrencycomb" xOffset="281" yOffset="-152"/>
    <component base="verticalBottomCurrencycomb" xOffset="281" yOffset="2"/>
  </outline>
</glyph>
<glyph name="currency" format="2">
  <advance width="579"/>
  <unicode hex="00A4"/>
  <anchor x="160.655071" y="461.573967" name="_TopCurrency"/>
  <outline>
    <contour>
      <point x="289" y="107" type="curve" smooth="yes"/>
      <point x="418" y="107"/>
      <point x="511" y="202"/>
      <point x="511" y="322" type="curve" smooth="yes"/>
      <point x="511" y="442"/>
      <point x="418" y="538"/>
      <point x="289" y="538" type="curve" smooth="yes"/>
      <point x="160" y="538"/>
      <point x="67" y="442"/>
      <point x="67" y="322" type="curve" smooth="yes"/>
      <point x="67" y="202"/>
      <point x="160" y="107"/>
    </contour>
    <contour>
      <point x="289" y="221" type="curve" smooth="yes"/>
      <point x="229" y="221"/>
      <point x="189" y="265"/>
      <point x="189" y="322" type="curve" smooth="yes"/>
      <point x="189" y="379"/>
      <point x="229" y="424"/>
      <point x="289" y="424" type="curve" smooth="yes"/>
      <point x="349" y="424"/>
      <point x="389" y="379"/>
      <point x="389" y="322" type="curve" smooth="yes"/>
      <point x="389" y="265"/>
      <point x="349" y="221"/>
    </contour>
    <component base="verticalTopCurrencycomb" xScale="0.7313537016191705" xyScale="0.6819983600624985" yxScale="-0.6819983600624985" yScale="0.7313537016191705" xOffset="606" yOffset="-16"/>
    <component base="verticalTopCurrencycomb" xScale="0.7313537016191705" xyScale="-0.6819983600624985" yxScale="0.6819983600624985" yScale="0.7313537016191705" xOffset="-28" yOffset="-16"/>
    <component base="verticalTopCurrencycomb" xScale="-0.7313537016191705" xyScale="-0.6819983600624986" yxScale="0.6819983600624986" yScale="-0.7313537016191705" xOffset="-27" yOffset="663"/>
    <component base="verticalTopCurrencycomb" xScale="-0.7313537016191705" xyScale="0.6819983600624986" yxScale="-0.6819983600624986" yScale="-0.7313537016191705" xOffset="607" yOffset="663"/>
  </outline>
</glyph>
<glyph name="ordmasculine" format="2">
  <advance width="510"/>
  <unicode hex="00BA"/>
  <outline>
    <contour>
      <point x="255" y="312" type="curve" smooth="yes"/>
      <point x="375" y="312"/>
      <point x="461" y="401"/>
      <point x="461" y="512" type="curve" smooth="yes"/>
      <point x="461" y="624"/>
      <point x="375" y="713"/>
      <point x="255" y="713" type="curve" smooth="yes"/>
      <point x="135" y="713"/>
      <point x="49" y="624"/>
      <point x="49" y="512" type="curve" smooth="yes"/>
      <point x="49" y="401"/>
      <point x="135" y="312"/>
    </contour>
    <contour>
      <point x="255" y="416" type="curve" smooth="yes"/>
      <point x="199" y="416"/>
      <point x="163" y="460"/>
      <point x="163" y="512" type="curve" smooth="yes"/>
      <point x="163" y="564"/>
      <point x="199" y="609"/>
      <point x="255" y="609" type="curve" smooth="yes"/>
      <point x="310" y="609"/>
      <point x="346" y="564"/>
      <point x="346" y="512" type="curve" smooth="yes"/>
      <point x="346" y="460"/>
      <point x="310" y="416"/>
    </contour>
    <contour>
      <point x="67" y="157" type="line"/>
      <point x="443" y="157" type="line"/>
      <point x="443" y="256" type="line"/>
      <point x="67" y="256" type="line"/>
    </contour>
  </outline>
</glyph>
<glyph name="germandbls" format="2">
  <advance width="642"/>
  <unicode hex="00DF"/>
  <outline>
    <contour>
      <point x="362" y="-13" type="curve" smooth="yes"/>
      <point x="512" y="-13"/>
      <point x="593" y="100"/>
      <point x="593" y="212" type="curve" smooth="yes"/>
      <point x="593" y="284"/>
      <point x="560" y="384"/>
      <point x="442" y="409" type="curve"/>
      <point x="442" y="413" type="line"/>
      <point x="501" y="437"/>
      <point x="532" y="498"/>
      <point x="532" y="559" type="curve" smooth="yes"/>
      <point x="532" y="659"/>
      <point x="442" y="753"/>
      <point x="308" y="753" type="curve" smooth="yes"/>
      <point x="166" y="753"/>
      <point x="70" y="651"/>
      <point x="70" y="524" type="curve" smooth="yes"/>
      <point x="70" y="0" type="line"/>
      <point x="205" y="0" type="line"/>
      <point x="205" y="524" type="line" smooth="yes"/>
      <point x="205" y="594"/>
      <point x="251" y="630"/>
      <point x="304" y="630" type="curve" smooth="yes"/>
      <point x="356" y="630"/>
      <point x="398" y="592"/>
      <point x="398" y="544" type="curve" smooth="yes"/>
      <point x="398" y="471"/>
      <point x="347" y="435"/>
      <point x="287" y="435" type="curve"/>
      <point x="287" y="327" type="line"/>
      <point x="412" y="346"/>
      <point x="459" y="280"/>
      <point x="459" y="215" type="curve" smooth="yes"/>
      <point x="459" y="140"/>
      <point x="404" y="108"/>
      <point x="358" y="108" type="curve" smooth="yes"/>
      <point x="329" y="108"/>
      <point x="304" y="116"/>
      <point x="285" y="123" type="curve"/>
      <point x="285" y="4" type="line"/>
      <point x="304" y="-8"/>
      <point x="341" y="-13"/>
    </contour>
  </outline>
</glyph>
<glyph name="divide" format="2">
  <advance width="596"/>
  <unicode hex="00F7"/>
  <outline>
    <contour>
      <point x="65" y="261" type="line"/>
      <point x="517" y="261" type="line"/>
      <point x="517" y="371" type="line"/>
      <point x="65" y="371" type="line"/>
    </contour>
    <component base="tittle" xScale="0.95" yScale="0.95" xOffset="157" yOffset="-486"/>
    <component base="tittle" xScale="0.95" yScale="0.95" xOffset="159" yOffset="-119"/>
  </outline>
</glyph>
<glyph name="Hbar" format="2">
  <advance width="730"/>
  <unicode hex="0126"/>
  <anchor x="365" y="0" name="bottom"/>
  <anchor x="510" y="0" name="ogonek"/>
  <anchor x="365" y="700" name="top"/>
  <outline>
    <contour>
      <point x="10" y="508" type="line"/>
      <point x="720" y="508" type="line"/>
      <point x="720" y="628" type="line"/>
      <point x="10" y="628" type="line"/>
    </contour>
    <component base="H"/>
  </outline>
</glyph>
<glyph name="circumflexcomb" format="2">
  <unicode hex="0302"/>
  <anchor x="0" y="505" name="_top"/>
  <anchor x="0" y="700" name="top"/>
  <outline>
    <contour>
      <point x="-154" y="548" type="line"/>
      <point x="-43" y="548" type="line"/>
      <point x="0" y="656" type="line"/>
      <point x="3" y="656" type="line"/>
      <point x="45" y="548" type="line"/>
      <point x="154" y="548" type="line"/>
      <point x="56" y="707" type="line"/>
      <point x="-53" y="707" type="line"/>
    </contour>
  </outline>
</glyph>
<glyph name="tildecomb" format="2">
  <unicode hex="0303"/>
  <anchor x="0" y="505" name="_top"/>
  <anchor x="0" y="680" name="top"/>
  <outline>
    <contour>
      <point x="65" y="563" type="curve" smooth="yes"/>
      <point x="126" y="563"/>
      <point x="167" y="614"/>
      <point x="167" y="700" type="curve"/>
      <point x="93" y="700" type="line"/>
      <point x="93" y="671"/>
      <point x="84" y="655"/>
      <point x="69" y="655" type="curve" smooth="yes"/>
      <point x="33" y="655"/>
      <point x="19" y="717"/>
      <point x="-53" y="717" type="curve" smooth="yes"/>
      <point x="-122" y="717"/>
      <point x="-167" y="667"/>
      <point x="-167" y="582" type="curve"/>
      <point x="-94" y="582" type="line"/>
      <point x="-94" y="612"/>
      <point x="-80" y="627"/>
      <point x="-59" y="627" type="curve" smooth="yes"/>
      <point x="-18" y="627"/>
      <point x="-16" y="563"/>
    </contour>
  </outline>
</glyph>
<glyph name="naira" format="2">
  <advance width="746"/>
  <unicode hex="20A6"/>
  <anchor x="377.722" y="30.0" name="bottom"/>
  <anchor x="642.8736" y="30.0" name="ogonek"/>
  <anchor x="369.2296" y="669.94" name="top"/>
  <outline>
    <contour>
      <point x="0" y="317" type="line"/>
      <point x="746" y="317" type="line"/>
      <point x="746" y="402" type="line"/>
      <point x="0" y="402" type="line"/>
    </contour>
    <component base="N" xScale="0.9436" yScale="0.9142" xOffset="5" yOffset="30"/>
  </outline>
</glyph>
<glyph name="liraTurkish" format="2">
  <advance width="558"/>
  <unicode hex="20BA"/>
  <outline>
    <contour>
      <point x="20" y="297" type="line"/>
      <point x="487" y="397" type="line"/>
      <point x="487" y="487" type="line"/>
      <point x="20" y="387" type="line"/>
    </contour>
    <contour>
      <point x="20" y="443" type="line"/>
      <point x="487" y="543" type="line"/>
      <point x="487" y="627" type="line"/>
      <point x="20" y="532" type="line"/>
    </contour>
    <contour>
      <point x="85" y="30" type="line"/>
      <point x="222" y="30" type="line" smooth="yes"/>
      <point x="403" y="30"/>
      <point x="502" y="112"/>
      <point x="520" y="278" type="curve" smooth="yes"/>
      <point x="524" y="312" type="line"/>
      <point x="399" y="325" type="line"/>
      <point x="396" y="294" type="line" smooth="yes"/>
      <point x="386" y="210"/>
      <point x="341" y="165"/>
      <point x="262" y="165" type="curve" smooth="yes"/>
      <point x="225" y="165" type="line"/>
      <point x="225" y="670" type="line"/>
      <point x="85" y="670" type="line"/>
    </contour>
  </outline>
</glyph>
<glyph name="whiteSmallSquare" format="2">
  <advance width="397"/>
  <unicode hex="25AB"/>
  <outline>
    <contour>
      <point x="90" y="255" type="line"/>
      <point x="307" y="255" type="line"/>
      <point x="307" y="471" type="line"/>
      <point x="90" y="471" type="line"/>
    </contour>
    <contour>
      <point x="146" y="311" type="line"/>
      <point x="146" y="415" type="line"/>
      <point x="251" y="415" type="line"/>
      <point x="251" y="311" type="line"/>
    </contour>
  </outline>
</glyph>
<glyph name="upWhiteSmallTriangle" format="2">
  <advance width="397"/>
  <unicode hex="25B5"/>
  <outline>
    <contour>
      <point x="45" y="229" type="line"/>
      <point x="352" y="229" type="line"/>
      <point x="198" y="495" type="line"/>
    </contour>
    <contour>
      <point x="142" y="285" type="line"/>
      <point x="198" y="390" type="line"/>
      <point x="254" y="285" type="line"/>
    </contour>
  </outline>
</glyph>
<glyph name="rightBlackSmallTriangle" format="2">
  <advance width="386"/>
  <unicode hex="25B8"/>
  <outline>
    <contour>
      <point x="90" y="208" type="line"/>
      <point x="356" y="362" type="line"/>
      <point x="90" y="515" type="line"/>
    </contour>
  </outline>
</glyph>
<glyph name="heavyBallotX" format="2">
  <advance width="600"/>
  <unicode hex="2718"/>
  <outline>
    <contour>
      <point x="177" y="161" type="curve" smooth="yes"/>
      <point x="261" y="238"/>
      <point x="430" y="453"/>
      <point x="465" y="558" type="curve" smooth="yes"/>
      <point x="478" y="595"/>
      <point x="441" y="617"/>
      <point x="420" y="586" type="curve" smooth="yes"/>
      <point x="326" y="441"/>
      <point x="177" y="265"/>
      <point x="127" y="189" type="curve" smooth="yes"/>
      <point x="101" y="150"/>
      <point x="143" y="131"/>
    </contour>
    <contour>
      <point x="393" y="171" type="curve" smooth="yes"/>
      <point x="411" y="142"/>
      <point x="444" y="149"/>
      <point x="466" y="188" type="curve" smooth="yes"/>
      <point x="483" y="214"/>
      <point x="486" y="250"/>
      <point x="474" y="268" type="curve" smooth="yes"/>
      <point x="408" y="366"/>
      <point x="297" y="458"/>
      <point x="224" y="581" type="curve" smooth="yes"/>
      <point x="207" y="610"/>
      <point x="174" y="602"/>
      <point x="151" y="564" type="curve" smooth="yes"/>
      <point x="135" y="538"/>
      <point x="132" y="501"/>
      <point x="144" y="484" type="curve" smooth="yes"/>
      <point x="210" y="385"/>
      <point x="321" y="294"/>
    </contour>
  </outline>
</glyph>
<glyph name="Eng.ss10" format="2">
  <advance width="776"/>
  <anchor x="395" y="0" name="bottom"/>
  <anchor x="676" y="0" name="ogonek"/>
  <anchor x="386" y="700" name="top"/>
  <outline>
    <contour>
      <point x="566" y="195" type="line"/>
      <point x="566" y="-220" type="line"/>
      <point x="696" y="-220" type="line"/>
      <point x="696" y="0" type="line"/>
    </contour>
    <component base="N"/>
  </outline>
</glyph>
<glyph name=".notdef" format="2">
  <advance width="600"/>
  <outline>
    <contour>
      <point x="65" y="0" type="line"/>
      <point x="535" y="0" type="line"/>
      <point x="535" y="700" type="line"/>
      <point x="65" y="700" type="line"/>
    </contour>
    <contour>
      <point x="100" y="35" type="line"/>
      <point x="100" y="665" type="line"/>
      <point x="500" y="665" type="line"/>
      <point x="500" y="35" type="line"/>
    </contour>
  </outline>
</glyph>
<glyph name="ast" format="2">
  <advance width="140"/>
  <outline>
    <contour>
      <point x="69" y="535" type="line"/>
      <point x="102" y="545" type="line"/>
      <point x="115" y="697" type="line"/>
      <point x="23" y="697" type="line"/>
      <point x="36" y="545" type="line"/>
    </contour>
  </outline>
</glyph>
<glyph name="caroncomb.alt" format="2">
  <anchor x="37" y="740" name="_topright"/>
  <outline>
    <contour>
      <point x="11" y="536" type="line"/>
      <point x="105" y="536" type="line"/>
      <point x="203" y="740" type="line"/>
      <point x="61" y="740" type="line"/>
    </contour>
  </outline>
</glyph>
<glyph name="comma.ss04" format="2">
  <advance width="300"/>
  <outline>
    <contour>
      <point x="95" y="-158" type="line"/>
      <point x="207" y="-128"/>
      <point x="253" y="-44"/>
      <point x="253" y="33" type="curve" smooth="yes"/>
      <point x="253" y="109"/>
      <point x="207" y="166"/>
      <point x="146" y="166" type="curve" smooth="yes"/>
      <point x="101" y="166"/>
      <point x="67" y="134"/>
      <point x="67" y="92" type="curve" smooth="yes"/>
      <point x="67" y="51"/>
      <point x="95" y="21"/>
      <point x="132" y="21" type="curve" smooth="yes"/>
      <point x="143" y="21"/>
      <point x="155" y="25"/>
      <point x="162" y="30" type="curve"/>
      <point x="164" y="30" type="line"/>
      <point x="165" y="27"/>
      <point x="165" y="24"/>
      <point x="165" y="16" type="curve" smooth="yes"/>
      <point x="165" y="-19"/>
      <point x="133" y="-65"/>
      <point x="70" y="-82" type="curve"/>
    </contour>
  </outline>
</glyph>
<glyph name="f_f_i" format="2">
  <advance width="975"/>
  <anchor x="180" y="0" name="bottom_1"/>
  <anchor x="279" y="740" name="top_1"/>
  <anchor x="508" y="0" name="bottom_2"/>
  <anchor x="607" y="740" name="top_2"/>
  <anchor x="837" y="0" name="bottom_3"/>
  <anchor x="816" y="0" name="ogonek_3"/>
  <anchor x="837" y="505" name="top_3"/>
  <anchor x="392" y="0" name="caret_1"/>
  <anchor x="720" y="0" name="caret_2"/>
  <outline>
    <contour>
      <point x="509" y="385" type="line"/>
      <point x="894" y="385" type="line"/>
      <point x="904" y="505" type="line"/>
      <point x="509" y="505" type="line"/>
    </contour>
    <component base="f"/>
    <component base="f" xOffset="328"/>
    <component base="i" xOffset="699"/>
  </outline>
</glyph>
<glyph name="f_f_i.ss11" format="2">
  <advance width="961"/>
  <anchor x="837" y="0" name="bottom_1"/>
  <anchor x="816" y="0" name="ogonek_1"/>
  <anchor x="837" y="505" name="top_1"/>
  <anchor x="392" y="0" name="caret_1"/>
  <anchor x="720" y="0" name="caret_2"/>
  <outline>
    <contour>
      <point x="113" y="0" type="line"/>
      <point x="248" y="0" type="line"/>
      <point x="248" y="547" type="line" smooth="yes"/>
      <point x="248" y="598"/>
      <point x="286" y="630"/>
      <point x="347" y="630" type="curve" smooth="yes"/>
      <point x="405" y="630"/>
      <point x="441" y="601"/>
      <point x="441" y="554" type="curve" smooth="yes"/>
      <point x="441" y="0" type="line"/>
      <point x="576" y="0" type="line"/>
      <point x="576" y="547" type="line" smooth="yes"/>
      <point x="576" y="598"/>
      <point x="614" y="630"/>
      <point x="675" y="630" type="curve" smooth="yes"/>
      <point x="733" y="630"/>
      <point x="769" y="601"/>
      <point x="769" y="554" type="curve"/>
      <point x="904" y="554" type="line"/>
      <point x="904" y="668"/>
      <point x="811" y="753"/>
      <point x="675" y="753" type="curve" smooth="yes"/>
      <point x="614" y="753"/>
      <point x="547" y="725"/>
      <point x="513" y="675" type="curve"/>
      <point x="507" y="675" type="line"/>
      <point x="473" y="726"/>
      <point x="407" y="753"/>
      <point x="347" y="753" type="curve" smooth="yes"/>
      <point x="210" y="753"/>
      <point x="113" y="668"/>
      <point x="113" y="554" type="curve" smooth="yes"/>
    </contour>
    <contour>
      <point x="20" y="385" type="line"/>
      <point x="715" y="385" type="line"/>
      <point x="715" y="505" type="line"/>
      <point x="20" y="505" type="line"/>
    </contour>
    <component base="idotless" xOffset="699"/>
  </outline>
</glyph>
<glyph name="guarani.tf.ss02" format="2">
  <advance width="596"/>
  <outline>
    <contour>
      <point x="304" y="12" type="curve" smooth="yes"/>
      <point x="493" y="12"/>
      <point x="594" y="143"/>
      <point x="594" y="323" type="curve" smooth="yes"/>
      <point x="594" y="344"/>
      <point x="592" y="373"/>
      <point x="589" y="392" type="curve"/>
      <point x="272" y="392" type="line"/>
      <point x="272" y="278" type="line"/>
      <point x="483" y="278" type="line"/>
      <point x="455" y="289" type="line"/>
      <point x="446" y="192"/>
      <point x="393" y="140"/>
      <point x="307" y="140" type="curve" smooth="yes"/>
      <point x="198" y="140"/>
      <point x="144" y="230"/>
      <point x="144" y="349" type="curve" smooth="yes"/>
      <point x="144" y="468"/>
      <point x="207" y="559"/>
      <point x="307" y="559" type="curve" smooth="yes"/>
      <point x="369" y="559"/>
      <point x="388" y="544"/>
      <point x="430" y="496" type="curve"/>
      <point x="529" y="579" type="line"/>
      <point x="463" y="658"/>
      <point x="402" y="687"/>
      <point x="304" y="687" type="curve" smooth="yes"/>
      <point x="126" y="687"/>
      <point x="7" y="535"/>
      <point x="7" y="349" type="curve" smooth="yes"/>
      <point x="7" y="163"/>
      <point x="126" y="12"/>
    </contour>
    <contour>
      <point x="270" y="673" type="line"/>
      <point x="355" y="673" type="line"/>
      <point x="355" y="775" type="line"/>
      <point x="270" y="775" type="line"/>
    </contour>
    <contour>
      <point x="270" y="-69" type="line"/>
      <point x="355" y="-69" type="line"/>
      <point x="355" y="33" type="line"/>
      <point x="270" y="33" type="line"/>
    </contour>
  </outline>
</glyph>
<glyph name="pi.ss10" format="2">
  <advance width="609"/>
  <outline>
    <contour>
      <point x="113" y="0" type="line"/>
      <point x="248" y="0" type="line"/>
      <point x="248" y="385" type="line"/>
      <point x="362" y="385" type="line"/>
      <point x="362" y="0" type="line"/>
      <point x="497" y="0" type="line"/>
      <point x="497" y="385" type="line"/>
      <point x="589" y="385" type="line"/>
      <point x="589" y="505" type="line"/>
      <point x="20" y="505" type="line"/>
      <point x="20" y="385" type="line"/>
      <point x="113" y="385" type="line"/>
    </contour>
  </outline>
</glyph>
<glyph name="six.numr" format="2">
  <advance width="343"/>
  <outline>
    <contour>
      <point x="178" y="385" type="curve" smooth="yes"/>
      <point x="146" y="385"/>
      <point x="123" y="410"/>
      <point x="123" y="441" type="curve" smooth="yes"/>
      <point x="123" y="474"/>
      <point x="146" y="500"/>
      <point x="179" y="500" type="curve" smooth="yes"/>
      <point x="210" y="500"/>
      <point x="234" y="474"/>
      <point x="234" y="441" type="curve" smooth="yes"/>
      <point x="234" y="410"/>
      <point x="210" y="385"/>
    </contour>
    <contour>
      <point x="178" y="307" type="curve" smooth="yes"/>
      <point x="263" y="307"/>
      <point x="321" y="363"/>
      <point x="321" y="440" type="curve" smooth="yes"/>
      <point x="321" y="530"/>
      <point x="257" y="579"/>
      <point x="184" y="567" type="curve"/>
      <point x="273" y="700" type="line"/>
      <point x="177" y="700" type="line"/>
      <point x="68" y="535" type="line" smooth="yes"/>
      <point x="48" y="505"/>
      <point x="37" y="476"/>
      <point x="37" y="440" type="curve" smooth="yes"/>
      <point x="37" y="361"/>
      <point x="97" y="307"/>
    </contour>
  </outline>
</glyph>
<glyph name="zero.ss10" format="2">
  <advance width="654"/>
  <outline>
    <contour>
      <point x="327" y="-13" type="curve" smooth="yes"/>
      <point x="478" y="-13"/>
      <point x="589" y="110"/>
      <point x="589" y="348" type="curve" smooth="yes"/>
      <point x="589" y="582"/>
      <point x="486" y="711"/>
      <point x="327" y="711" type="curve" smooth="yes"/>
      <point x="169" y="711"/>
      <point x="65" y="585"/>
      <point x="65" y="348" type="curve" smooth="yes"/>
      <point x="65" y="109"/>
      <point x="176" y="-13"/>
    </contour>
    <contour>
      <point x="327" y="117" type="curve" smooth="yes"/>
      <point x="256" y="117"/>
      <point x="210" y="177"/>
      <point x="210" y="348" type="curve" smooth="yes"/>
      <point x="210" y="530"/>
      <point x="256" y="581"/>
      <point x="327" y="581" type="curve" smooth="yes"/>
      <point x="398" y="581"/>
      <point x="444" y="530"/>
      <point x="444" y="348" type="curve" smooth="yes"/>
      <point x="444" y="177"/>
      <point x="398" y="117"/>
    </contour>
  </outline>
</glyph>
